<?xml version="1.0" encoding="utf-8"?>
<!-- Generator: Adobe Illustrator 16.0.0, SVG Export Plug-In . SVG Version: 6.00 Build 0)  -->
<!DOCTYPE svg PUBLIC "-//W3C//DTD SVG 1.1//EN" "http://www.w3.org/Graphics/SVG/1.1/DTD/svg11.dtd" [
	<!ENTITY ns_flows "http://ns.adobe.com/Flows/1.0/">
	<!ENTITY ns_extend "http://ns.adobe.com/Extensibility/1.0/">
	<!ENTITY ns_ai "http://ns.adobe.com/AdobeIllustrator/10.0/">
	<!ENTITY ns_graphs "http://ns.adobe.com/Graphs/1.0/">
]>
<svg version="1.1" id="Слой_1" xmlns:x="&ns_extend;" xmlns:i="&ns_ai;" xmlns:graph="&ns_graphs;"
	 xmlns="http://www.w3.org/2000/svg" xmlns:xlink="http://www.w3.org/1999/xlink" xmlns:a="http://ns.adobe.com/AdobeSVGViewerExtensions/3.0/"
	 x="0px" y="0px" width="150px" height="190px" viewBox="0 0 150 190" enable-background="new 0 0 150 190" xml:space="preserve">
<path fill-rule="evenodd" clip-rule="evenodd" d="M94.547,146.879c-14.471,0-33.227-0.095-45.332-0.095
	c-21.766,0-24.197-29.166-6.688-35.489c-0.1-14.654,9.348-29.426,28.531-29.426c13.996,0,23.105,7.806,27.037,17.696
	C126.441,102.477,126.785,146.879,94.547,146.879z M93.682,106.879c-1.693-9.789-9.26-18.342-22.307-18.342
	c-17.152,0-23.656,15.625-20.943,28.379c-17.582,0-15.896,23.381-0.508,23.381c10.818,0,32.613-0.372,45.635-0.372
	C118.303,139.925,118.059,104.639,93.682,106.879z"/>
</svg>
