<?xml version="1.0" encoding="utf-8"?>
<!-- Generator: Adobe Illustrator 16.0.0, SVG Export Plug-In . SVG Version: 6.00 Build 0)  -->
<!DOCTYPE svg PUBLIC "-//W3C//DTD SVG 1.1//EN" "http://www.w3.org/Graphics/SVG/1.1/DTD/svg11.dtd" [
	<!ENTITY ns_flows "http://ns.adobe.com/Flows/1.0/">
	<!ENTITY ns_extend "http://ns.adobe.com/Extensibility/1.0/">
	<!ENTITY ns_ai "http://ns.adobe.com/AdobeIllustrator/10.0/">
	<!ENTITY ns_graphs "http://ns.adobe.com/Graphs/1.0/">
]>
<svg version="1.1" id="Слой_1" xmlns:x="&ns_extend;" xmlns:i="&ns_ai;" xmlns:graph="&ns_graphs;"
	 xmlns="http://www.w3.org/2000/svg" xmlns:xlink="http://www.w3.org/1999/xlink" xmlns:a="http://ns.adobe.com/AdobeSVGViewerExtensions/3.0/"
	 x="0px" y="0px" width="150px" height="190px" viewBox="0 0 150 190" enable-background="new 0 0 150 190" xml:space="preserve">
<path fill-rule="evenodd" clip-rule="evenodd" d="M72.339,137.383l-0.222,12.761l-7.885-0.382l3.926-21.041l17.985-13.597
	l-1.484-2.803l-14.9,7.815l2.887-15.475l11.532-10.84l-1.4-2.293l-8.434,4.033l3.3-17.688l-2.98-0.578
	c-3.142,9.109-5.72,18.168-7.763,26.76l-9.246-9.226l-2.545,1.307l9.959,16.173c-1.822,8.855-3.024,16.99-3.655,23.922
	c-38.179-17.632-21.07-57.379,18.028-77.216C106.043,87.271,112.201,132.022,72.339,137.383z"/>
</svg>
