<?xml version="1.0" encoding="utf-8"?>
<!-- Generator: Adobe Illustrator 16.0.0, SVG Export Plug-In . SVG Version: 6.00 Build 0)  -->
<!DOCTYPE svg PUBLIC "-//W3C//DTD SVG 1.1//EN" "http://www.w3.org/Graphics/SVG/1.1/DTD/svg11.dtd" [
	<!ENTITY ns_flows "http://ns.adobe.com/Flows/1.0/">
	<!ENTITY ns_extend "http://ns.adobe.com/Extensibility/1.0/">
	<!ENTITY ns_ai "http://ns.adobe.com/AdobeIllustrator/10.0/">
	<!ENTITY ns_graphs "http://ns.adobe.com/Graphs/1.0/">
]>
<svg version="1.1" id="Слой_1" xmlns:x="&ns_extend;" xmlns:i="&ns_ai;" xmlns:graph="&ns_graphs;"
	 xmlns="http://www.w3.org/2000/svg" xmlns:xlink="http://www.w3.org/1999/xlink" xmlns:a="http://ns.adobe.com/AdobeSVGViewerExtensions/3.0/"
	 x="0px" y="0px" width="150px" height="190px" viewBox="0 0 150 190" enable-background="new 0 0 150 190" xml:space="preserve">
<path fill-rule="evenodd" clip-rule="evenodd" d="M79.92,119.887c0.403-3.312,0.764-6.534,1.085-9.613
	c5.027-5.833,15.895-10.226,28.995-5.498C102.374,121.36,86.483,124.11,79.92,119.887z M82.079,98.919
	c0.259-3.029,0.471-5.771,0.642-8.15c4.31-5.359,14.136-9.553,26.04-5.255C101.995,100.225,87.904,102.663,82.079,98.919z
	 M71.103,149.931l-7.082-1.642c1.041-4.119,2.045-8.573,3-13.163c-6.501,4.201-22.171,1.688-29.975-14.532
	c15.511-5.906,28.054,1.306,31.184,8.523c0.713-3.657,1.392-7.343,2.029-10.965c-6.939,3.569-23.016-2.668-26.572-21.496
	c15.418-1.579,25.421,7.133,27.745,14.663c0.829-4.966,1.569-9.675,2.202-13.858c-6.053,3.377-20.572-2.096-23.759-18.97
	c13.723-1.404,22.606,6.378,24.632,13.072c0.443-3.059,0.801-5.628,1.062-7.542c-5.652-5.491-7.176-20.683,5.517-32.447
	c11.353,14.542,6.134,30.099-0.772,33.579C79.296,95.659,76.239,124.489,71.103,149.931z M109.202,129.883
	c-10.943,13.183-25.798,12.592-31.765,7.632c0.48-2.967,0.926-5.933,1.337-8.865C84.716,123.655,97.075,121.44,109.202,129.883z"/>
</svg>
