<?xml version="1.0" encoding="utf-8"?>
<!-- Generator: Adobe Illustrator 16.0.0, SVG Export Plug-In . SVG Version: 6.00 Build 0)  -->
<!DOCTYPE svg PUBLIC "-//W3C//DTD SVG 1.1//EN" "http://www.w3.org/Graphics/SVG/1.1/DTD/svg11.dtd" [
	<!ENTITY ns_flows "http://ns.adobe.com/Flows/1.0/">
	<!ENTITY ns_extend "http://ns.adobe.com/Extensibility/1.0/">
	<!ENTITY ns_ai "http://ns.adobe.com/AdobeIllustrator/10.0/">
	<!ENTITY ns_graphs "http://ns.adobe.com/Graphs/1.0/">
]>
<svg version="1.1" id="Слой_1" xmlns:x="&ns_extend;" xmlns:i="&ns_ai;" xmlns:graph="&ns_graphs;"
	 xmlns="http://www.w3.org/2000/svg" xmlns:xlink="http://www.w3.org/1999/xlink" xmlns:a="http://ns.adobe.com/AdobeSVGViewerExtensions/3.0/"
	 x="0px" y="0px" width="150px" height="190px" viewBox="0 0 150 190" enable-background="new 0 0 150 190" xml:space="preserve">
<path fill-rule="evenodd" clip-rule="evenodd" d="M124.062,114.046l-29.631,10.66l1.753,13.581l-23.006-10.553l-25.277,3.12
	l4.573-10.804l-24.893-17.628l8.322-4.613L31.43,81.745l15.424,4.016l5.067-7.855l11.552,14.271L60.037,63.97l11.049,5.869
	l12.359-15.514l6.9,17.337l12.006-1.596L90.565,96.315l16.081-11.961l1.646,8.637l16.806,0.84l-8.711,14.403L124.062,114.046z
	 M72.883,133.176l-0.994,16.755l-7.291-0.641l4.631-13.258L72.883,133.176z"/>
</svg>
