<?xml version="1.0" encoding="utf-8"?>
<!-- Generator: Adobe Illustrator 16.0.0, SVG Export Plug-In . SVG Version: 6.00 Build 0)  -->
<!DOCTYPE svg PUBLIC "-//W3C//DTD SVG 1.1//EN" "http://www.w3.org/Graphics/SVG/1.1/DTD/svg11.dtd" [
	<!ENTITY ns_flows "http://ns.adobe.com/Flows/1.0/">
	<!ENTITY ns_extend "http://ns.adobe.com/Extensibility/1.0/">
	<!ENTITY ns_ai "http://ns.adobe.com/AdobeIllustrator/10.0/">
	<!ENTITY ns_graphs "http://ns.adobe.com/Graphs/1.0/">
]>
<svg version="1.1" id="Слой_1" xmlns:x="&ns_extend;" xmlns:i="&ns_ai;" xmlns:graph="&ns_graphs;"
	 xmlns="http://www.w3.org/2000/svg" xmlns:xlink="http://www.w3.org/1999/xlink" xmlns:a="http://ns.adobe.com/AdobeSVGViewerExtensions/3.0/"
	 x="0px" y="0px" width="150px" height="190px" viewBox="0 0 150 190" enable-background="new 0 0 150 190" xml:space="preserve">
<path fill-rule="evenodd" clip-rule="evenodd" d="M108.007,146.879c-13.532,0-31.074-0.09-42.396-0.09
	c-20.355,0-22.628-27.275-6.254-33.189c-0.081-11.955,6.634-23.994,20.261-26.872c-3.532-5.783-10.012-9.779-19.067-8.628
	c-18.566,2.361-21.698,23.813-10.56,33.399l-4.044,5.108C30.778,103.715,35.01,74.25,59.601,71.124
	c13.474-1.713,22.74,5.465,26.953,14.961c12.799,0.188,21.143,7.417,24.773,16.545C137.834,105.354,138.156,146.879,108.007,146.879
	z M106.847,109.74c-1.562-9.025-8.538-17.094-20.566-17.094c-15.813,0-21.811,14.589-19.311,26.348
	c-16.209,0-14.654,21.557-0.467,21.557c9.974,0,30.068-0.343,42.074-0.343C129.548,140.208,129.322,107.674,106.847,109.74z
	 M85.188,72.784l8.368-7.938l4.918,5.476l-9.451,6.938L85.188,72.784z M68.778,65.405l3.182-15.019l6.586,1.599l-4.233,14.914
	L68.778,65.405z M44.587,56.267l7.121-2.019l3.652,10.46l-5.473,1.737L44.587,56.267z M22.837,71.656l3.674-6.408l12.59,9.074
	l-2.84,5.243L22.837,71.656z M30.952,99.417l-11.697,0.947l-0.183-7.583l11.383,0.897L30.952,99.417z M39.717,119.319
	l-11.491,10.892l-4.707-6.285l12.414-9.113L39.717,119.319z"/>
</svg>
