<?xml version="1.0" encoding="utf-8"?>
<!-- Generator: Adobe Illustrator 16.0.0, SVG Export Plug-In . SVG Version: 6.00 Build 0)  -->
<!DOCTYPE svg PUBLIC "-//W3C//DTD SVG 1.1//EN" "http://www.w3.org/Graphics/SVG/1.1/DTD/svg11.dtd" [
	<!ENTITY ns_flows "http://ns.adobe.com/Flows/1.0/">
	<!ENTITY ns_extend "http://ns.adobe.com/Extensibility/1.0/">
	<!ENTITY ns_ai "http://ns.adobe.com/AdobeIllustrator/10.0/">
	<!ENTITY ns_graphs "http://ns.adobe.com/Graphs/1.0/">
]>
<svg version="1.1" id="Слой_1" xmlns:x="&ns_extend;" xmlns:i="&ns_ai;" xmlns:graph="&ns_graphs;"
	 xmlns="http://www.w3.org/2000/svg" xmlns:xlink="http://www.w3.org/1999/xlink" xmlns:a="http://ns.adobe.com/AdobeSVGViewerExtensions/3.0/"
	 x="0px" y="0px" width="150px" height="190px" viewBox="0 0 150 190" enable-background="new 0 0 150 190" xml:space="preserve">
<linearGradient id="SVGID_1_" gradientUnits="userSpaceOnUse" x1="107.8496" y1="138.1611" x2="41.9147" y2="72.2262">
	<stop  offset="0" style="stop-color:#0096FF"/>
	<stop  offset="1" style="stop-color:#00C8FF"/>
	<a:midPointStop  offset="0" style="stop-color:#0096FF"/>
	<a:midPointStop  offset="0.5" style="stop-color:#0096FF"/>
	<a:midPointStop  offset="1" style="stop-color:#00C8FF"/>
</linearGradient>
<path fill-rule="evenodd" clip-rule="evenodd" fill="url(#SVGID_1_)" d="M123.153,121.596l-13.324-3.883l7.15,10.06l-6.154,3.125
	l-6.65-14.833l-9.427-2.747l3.956,15.135l-15.686-3.565l2.818,9.286l16.24,6.936l-3.154,5.979l-11.405-7.375l4.038,13.304
	l-6.6,2.151l-3.445-13.885l-5.464,11.936l-6.156-3.667l10.241-13.831l-2.36-9.511l-11.139,11.508l-5.186-14.908l-6.355,6.715
	l2.061,17.085l-6.755,0.258l0.661-13.081l-9.221,9.744l-5.163-4.64l10.542-10.052l-13.565,1.282l0.098-7.164l17.536,2.003
	l6.644-6.335l-16.35-4.362l10.847-12.067l-7.812-1.854l-14.001,10.502l-3.602-5.721l11.958-6.122L25.191,95.73l1.438-6.791
	l14.204,4.13l-7.691-10.823l6.253-3.497l6.913,15.912l7.346,2.136l-3.803-15.485l16.744,4.785l-3.088-9.857l-15.651-6.522
	l2.869-6.301l10.992,7.109l-4.061-12.964l7.321-2.316l3.29,13.693L73.6,57.286l5.783,3.767l-9.766,13.513l2.376,9.889l11.221-13.127
	l4.795,16.6l5.891-6.477l-2.127-16.433l6.892-0.667L98.032,76.91l9.521-10.466l5.667,5.182l-11.188,10.738l13.382-1.266
	l-0.371,6.892L97.99,86.242l-6.091,5.845l14.118,4.301l-10.009,11.349l9.296,2.053l13.782-10.529l4.023,5.635l-12.044,6.166
	l13.743,3.035L123.153,121.596z M81.225,118.977l9.998,1.893l-2.07-9.184l-11.124-3.241L81.225,118.977z M50.937,111.382
	l11.295,3.139l8.395-8.003l-12.568-2.984L50.937,111.382z M68.412,91.898l-11.105-2.448l2.156,9.036l12.117,3.523L68.412,91.898z
	 M65.836,118.171l2.65,9.592l7.814-7.484l-2.588-10.432L65.836,118.171z M81.037,82.23l-7.64,8.064L76,101.129l7.94-8.729
	L81.037,82.23z M96.719,98.582l-8.915-2.565l-8.392,8.054l10.672,2.357L96.719,98.582z"/>
</svg>
