<?xml version="1.0" encoding="utf-8"?>
<!-- Generator: Adobe Illustrator 16.0.0, SVG Export Plug-In . SVG Version: 6.00 Build 0)  -->
<!DOCTYPE svg PUBLIC "-//W3C//DTD SVG 1.1//EN" "http://www.w3.org/Graphics/SVG/1.1/DTD/svg11.dtd" [
	<!ENTITY ns_flows "http://ns.adobe.com/Flows/1.0/">
	<!ENTITY ns_extend "http://ns.adobe.com/Extensibility/1.0/">
	<!ENTITY ns_ai "http://ns.adobe.com/AdobeIllustrator/10.0/">
	<!ENTITY ns_graphs "http://ns.adobe.com/Graphs/1.0/">
]>
<svg version="1.1" id="Слой_1" xmlns:x="&ns_extend;" xmlns:i="&ns_ai;" xmlns:graph="&ns_graphs;"
	 xmlns="http://www.w3.org/2000/svg" xmlns:xlink="http://www.w3.org/1999/xlink" xmlns:a="http://ns.adobe.com/AdobeSVGViewerExtensions/3.0/"
	 x="0px" y="0px" width="150px" height="190px" viewBox="0 0 150 190" enable-background="new 0 0 150 190" xml:space="preserve">
<path fill-rule="evenodd" clip-rule="evenodd" d="M124.73,114.967l-1.785,7.468l-10.706-3.324l5.944,10.127l-6.207,3.017
	l-5.159-14.828l-7.343-2.28l4.705,19.383l-20.123-4.946l2.051,7.21l15.946,6.878l-3.258,5.924l-11.12-7.292l3.127,10.993
	l-6.636,2.036l-2.575-11.214l-5.776,11.207l-6.091-3.774l10.579-13.042l-1.707-7.434l-14.242,14.209l-6.372-19.404l-5.372,5.481
	l3.067,16.03l-6.758,0.14l-0.242-12.158l-7.42,7.572l-5.081-4.729l8.225-7.573l-11.934-0.148l0.223-7.161l15.802,3.543l5.757-5.301
	l-20.346-5.811l14.089-15.133l-7.626-1.952l-11.596,10.287l-3.501-5.783l9.691-5.887l-9.513-2.435l1.555-6.765l9.764,3.024
	L31.8,80.419l6.313-3.388l3.886,15.712l7.331,2.271l-4.494-19.782l20.897,6.368l-2.604-8.848l-15.037-5.389l2.978-6.25l10.418,6.062
	l-2.916-9.909l7.36-2.188l2.282,10.285l5.835-9.98l5.716,3.867L69.451,70.927l2.074,9.346l14.75-16.657l5.624,20.822l4.88-5.18
	l-3.434-15.25l6.902-0.546l0.465,11.621l7.597-8.064l5.576,5.28l-8.309,7.7l11.124,0.499l-0.491,6.884l-14.727-3.589l-5.801,5.376
	l18.226,5.902l-12.973,14.202l7.536,1.803l12.318-10.309l3.924,5.704l-10.544,5.968L124.73,114.967z M82.354,123.599l13.873,2.479
	l-2.245-12.636l-3.141-0.975l-7.191,2.009l-1.85,7.178L82.354,123.599z M66.209,134.36l11.039-9.16l-0.666-2.897l-4.874-5.315
	l-7.446,2.485l-1.81,1.847L66.209,134.36z M44.472,112.449l14.303,4.962l2.497-2.299l2.175-7.053l-5.721-4.936l-3.923-1.004
	L44.472,112.449z M67.462,87.478l-14.667-2.703l2.525,12.097l3.062,0.948l7.679-2.084l1.754-7.058L67.462,87.478z M69.95,99.969
	l-5.217,2.142l3.651,4.893l-0.65,5.169l5.491-0.388l4.26,3.53l2.391-5.136l5.07-1.912l-3.2-4.525l0.179-5.376l-5.095,0.827
	l-4.771-3.374L69.95,99.969z M84.097,75.682L72.873,86.349l0.431,1.939l4.735,5.632l7.476-2.705l2.073-2.2L84.097,75.682z
	 M104.165,97.333l-12.669-4.287l-1.827,1.693l-2.477,7.74l4.69,4.628l3.382,0.809L104.165,97.333z"/>
</svg>
