<?xml version="1.0" encoding="utf-8"?>
<!-- Generator: Adobe Illustrator 16.0.0, SVG Export Plug-In . SVG Version: 6.00 Build 0)  -->
<!DOCTYPE svg PUBLIC "-//W3C//DTD SVG 1.1//EN" "http://www.w3.org/Graphics/SVG/1.1/DTD/svg11.dtd" [
	<!ENTITY ns_flows "http://ns.adobe.com/Flows/1.0/">
	<!ENTITY ns_extend "http://ns.adobe.com/Extensibility/1.0/">
	<!ENTITY ns_ai "http://ns.adobe.com/AdobeIllustrator/10.0/">
	<!ENTITY ns_graphs "http://ns.adobe.com/Graphs/1.0/">
]>
<svg version="1.1" id="Слой_1" xmlns:x="&ns_extend;" xmlns:i="&ns_ai;" xmlns:graph="&ns_graphs;"
	 xmlns="http://www.w3.org/2000/svg" xmlns:xlink="http://www.w3.org/1999/xlink" xmlns:a="http://ns.adobe.com/AdobeSVGViewerExtensions/3.0/"
	 x="0px" y="0px" width="150px" height="190px" viewBox="0 0 150 190" enable-background="new 0 0 150 190" xml:space="preserve">
<path fill-rule="evenodd" clip-rule="evenodd" d="M125.649,122.144c-0.267,0.032-0.526,0.052-0.789,0.079
	c2.79,11.372-3.86,25.149-21.249,25.305l2.414-6.895c17.588-0.543,16.234-28.117-3.02-26.347c-1.351-7.809-7.387-14.79-17.794-14.79
	c-13.681,0-18.87,12.623-16.706,22.796c-14.023,0-13.552,18.65-1.276,18.65c1.567,0,3.504-0.01,5.66-0.026l2.281-19.995l19.011,2.3
	l-3.669,14.269l8.998,1.294l-20.15,42.298l2.455-33.604l-8.259-0.02l-0.001,0.005c-2.482-0.006-4.869-0.01-7.043-0.01
	c-7.544,0-12.34-4.143-14.356-9.401c-2.461-0.005-4.775-0.008-6.851-0.008c-18.411,0-20.468-24.672-5.657-30.021
	c-0.069-10.232,5.371-20.527,16.399-23.81c-3.229-3.918-8.33-6.39-15.101-5.529c-14.998,1.907-18.338,18.229-10.848,27.116
	l-4.56,4.912C14.385,98.25,18.957,74.287,39.983,71.613c11.219-1.426,19.208,3.965,23.38,11.53c0.142-0.002,0.279-0.01,0.421-0.01
	c9.034,0,15.657,3.847,19.769,9.385c5.47-0.319,9.817,1.083,12.622,2.392c0.605-10.978,7.706-21.579,22.22-23.903
	c-13.533,18.413,7.497,44.904,28.859,34.186C144.547,113.634,137.529,120.685,125.649,122.144z M64.368,72.523l7.569-7.18
	l4.363,5.071l-8.548,6.276L64.368,72.523z M49.182,64.876l2.878-13.585l6.277,1.446l-3.828,13.49L49.182,64.876z M27.953,56.61
	l6.763-1.826l2.308,9.461l-5.271,1.571L27.953,56.61z M6.255,70.585l3.644-6.117l11.389,8.208l-2.891,5.064L6.255,70.585z
	 M13.309,96.038l-9.991,0.857l-0.571-7.181l10.112,0.812L13.309,96.038z M19.311,113.087l-10.854,9.342l-4.199-5.819l11.611-7.694
	L19.311,113.087z M42.882,148.602c3.306,5.446,5.746,12.26,5.285,17.011c-0.875,9.02-15.123,7.462-14.352-1.426
	C34.234,159.369,38.233,153.113,42.882,148.602z M60.646,160.445c3.306,5.446,5.746,12.26,5.285,17.011
	c-0.876,9.02-15.123,7.462-14.352-1.426C51.998,171.211,55.996,164.956,60.646,160.445z M95.496,162.575l7.987,1.343l-2.069-7.632
	l5.18-1.627l2.337,7.835l5.768-6.02l4.138,3.693l-5.908,5.994l8.35,2.156l-1.218,5.429l-8.317-2.146l2.871,7.888l-5.681,2.026
	l-2.495-8.655l-5.467,6.732l-3.996-3.478l5.936-6.589l-8.525-1.92L95.496,162.575z"/>
</svg>
