<?xml version="1.0" encoding="utf-8"?>
<!-- Generator: Adobe Illustrator 16.0.0, SVG Export Plug-In . SVG Version: 6.00 Build 0)  -->
<!DOCTYPE svg PUBLIC "-//W3C//DTD SVG 1.1//EN" "http://www.w3.org/Graphics/SVG/1.1/DTD/svg11.dtd" [
	<!ENTITY ns_flows "http://ns.adobe.com/Flows/1.0/">
	<!ENTITY ns_extend "http://ns.adobe.com/Extensibility/1.0/">
	<!ENTITY ns_ai "http://ns.adobe.com/AdobeIllustrator/10.0/">
	<!ENTITY ns_graphs "http://ns.adobe.com/Graphs/1.0/">
]>
<svg version="1.1" id="Слой_1" xmlns:x="&ns_extend;" xmlns:i="&ns_ai;" xmlns:graph="&ns_graphs;"
	 xmlns="http://www.w3.org/2000/svg" xmlns:xlink="http://www.w3.org/1999/xlink" xmlns:a="http://ns.adobe.com/AdobeSVGViewerExtensions/3.0/"
	 x="0px" y="0px" width="150px" height="190px" viewBox="0 0 150 190" enable-background="new 0 0 150 190" xml:space="preserve">
<path fill-rule="evenodd" clip-rule="evenodd" d="M140.846,86.701l-2.888-0.522l0.96-5.723l-5.827,2.667l1.429,8.475l-4.278,2.497
	l0.257,10.878l-4.226,3.418l-4.372-5.072l-2.813-0.126c-5.549,4.075-5.208,8.952-5.208,8.952l-2.106,0.301
	c-5.077-5.125-5.581-11.898-5.581-11.898l-4.723,0.277l-5.811-6.055l-1.626,1.536l2.713,5.335l2.457,0.36l2.013,2.295l-8.191,4.713
	l-6.198-11.868l0.783-6.743l-3.37,0.422l-3.603-3.142l-1.706,0.144l1.45,4.586l-6.198,1.967l-0.19-5.931L61.503,92.43l-0.007-7.645
	l4.631-0.271l3.141-7.884l7.876,0.106l-1.864-2.883l2.613-3.002c0,0-2.186-1.773-3.474,0.228l-2.512-0.425
	c0-7.479,13.829-9.764,16.179-1.095l12.631-2.259l2.377-5.158l15.875-2.492l1.381,4.536l13.581,1.19l15.507,5.151l0.246,4.477
	L140.846,86.701z M64.038,96.53l5.515,0.387l6.361,3.411l4.237-2.774l4.856,0.463l5.323,14.115l8.267,0.735
	c0,0-0.104,5.67-7.487,7.88l-1.5,8.226l-4.267,4.313c0.476,7.853-9.051,10.307-9.051,10.307l-5.158-7.156l-0.3-11.505l-4.132-4.125
	l-6.626,1.139l-5.147-7.423l0.375-8.927l6.381-4.057L64.038,96.53z M46.462,128.274l-1.408,3.326l-4.478,1.152l-2.992,6.183
	l-4.447,3.854l-2.54,9.283l-3.096-0.349c-4.012-13.279-3.113-24.811-3.113-24.811l-5.825-2.269l-3.71-7.293l5.766-5.839l0.286-1.86
	l-9.016-6.743L10.85,91.327l-1.768-0.874l-0.65,4.803l-1.903-0.442l-1.574-9.987C9.959,68.109,6.55,63.201,1,64.75l-0.683-2.562
	L11.874,59c0,0,3.601,7.538,14.922,10.202c-7.516,4.237-3.02,10.275,0.259,9.188l0.792,2.584l1.548-0.101l1.256-8.253l8.484,7.522
	l-3.919,3.813l2.813,2.094l-5.402,7.082c-3.135-0.793-5.126,2.573-3.525,5.701l-1.344,0.545c-3.508-5.747-9.742-3.561-9.742,2.646
	l1.867,1.106l3.473-1.489l0.516,4.88h7.237l8.955,4.734l0.129,3.327l9.851,4.095l-0.127,4.734L46.462,128.274z M32.164,66.979
	l-3.572-0.139l-2.488-2.139l3.23-6.749l6.917,0.899c-1.011,5.191,4.031,6.33,4.031,6.33l1.208,7.959l-1.693,0.979L32.164,66.979z
	 M126.899,127.898l2.962,0.658l0.078,2.948l3.751,1.001l2.212-5.078l6.015,10.345l-0.986,9.215l-5.924,1.316l-5.265-5.265
	l-12.835,2.304l-0.987-9.874l5.924-2.303L126.899,127.898z"/>
</svg>
