<?xml version="1.0" encoding="utf-8"?>
<!-- Generator: Adobe Illustrator 16.0.0, SVG Export Plug-In . SVG Version: 6.00 Build 0)  -->
<!DOCTYPE svg PUBLIC "-//W3C//DTD SVG 1.1//EN" "http://www.w3.org/Graphics/SVG/1.1/DTD/svg11.dtd" [
	<!ENTITY ns_flows "http://ns.adobe.com/Flows/1.0/">
	<!ENTITY ns_extend "http://ns.adobe.com/Extensibility/1.0/">
	<!ENTITY ns_ai "http://ns.adobe.com/AdobeIllustrator/10.0/">
	<!ENTITY ns_graphs "http://ns.adobe.com/Graphs/1.0/">
]>
<svg version="1.1" id="Слой_1" xmlns:x="&ns_extend;" xmlns:i="&ns_ai;" xmlns:graph="&ns_graphs;"
	 xmlns="http://www.w3.org/2000/svg" xmlns:xlink="http://www.w3.org/1999/xlink" xmlns:a="http://ns.adobe.com/AdobeSVGViewerExtensions/3.0/"
	 x="0px" y="0px" width="150px" height="190px" viewBox="0 0 150 190" enable-background="new 0 0 150 190" xml:space="preserve">
<path fill-rule="evenodd" clip-rule="evenodd" d="M101.455,84.274c15.361,1.886,11.889,17.228,0.803,15.867
	c-1.38-0.169-6.326-0.685-6.877-0.752c-3.592-0.441-4.58,5.603-0.726,6.076c0.567,0.07,2.11,0.252,2.646,0.318
	c10.849,1.332,9.321,16.492-1.075,15.291c-1.104-0.128-9.97-1.152-10.742-1.247c-3.313-0.407-3.44,4.51-0.186,4.909
	c7.507,0.922,6.988,13.586-2.224,12.521c-1.132-0.131-5.075-0.582-9.469-1.084l-1.718,13.757l-7.593-1.315l4.301-13.014
	c-4.387-0.501-8.36-0.956-9.591-1.098c-9.523-1.101-8.346-14.008,0.845-12.88c2.262,0.278,3.017-4.489,0.204-4.834
	c-2.813-0.346-8.676-1.003-9.845-1.139c-10.749-1.242-8.904-16.731,2.624-15.314c0.397,0.049,1.593,0.185,2.193,0.259
	c4.383,0.538,4.696-5.497,0.735-5.983c-0.585-0.072-4.809-0.511-6.269-0.68c-12.758-1.475-10.718-17.13,3.685-15.362
	c5.435,0.667,5.345-2.339,3.698-4.447c-5.904-7.556,2.917-15.808,9.253-7.696c1.449,1.854,4.164,0.661,4.936-5.617
	c1.58-12.876,19.121-11.121,17.608,1.209c-0.877,7.14,1.77,9.008,4.068,7.212c7.557-5.902,15.289,4.25,6.88,10.819
	C97.799,81.475,97.334,83.768,101.455,84.274z"/>
</svg>
