<?xml version="1.0" encoding="utf-8"?>
<!-- Generator: Adobe Illustrator 16.0.0, SVG Export Plug-In . SVG Version: 6.00 Build 0)  -->
<!DOCTYPE svg PUBLIC "-//W3C//DTD SVG 1.1//EN" "http://www.w3.org/Graphics/SVG/1.1/DTD/svg11.dtd" [
	<!ENTITY ns_flows "http://ns.adobe.com/Flows/1.0/">
	<!ENTITY ns_extend "http://ns.adobe.com/Extensibility/1.0/">
	<!ENTITY ns_ai "http://ns.adobe.com/AdobeIllustrator/10.0/">
	<!ENTITY ns_graphs "http://ns.adobe.com/Graphs/1.0/">
]>
<svg version="1.1" id="Слой_1" xmlns:x="&ns_extend;" xmlns:i="&ns_ai;" xmlns:graph="&ns_graphs;"
	 xmlns="http://www.w3.org/2000/svg" xmlns:xlink="http://www.w3.org/1999/xlink" xmlns:a="http://ns.adobe.com/AdobeSVGViewerExtensions/3.0/"
	 x="0px" y="0px" width="150px" height="190px" viewBox="0 0 150 190" enable-background="new 0 0 150 190" xml:space="preserve">
<path fill-rule="evenodd" clip-rule="evenodd" d="M121.433,109.085l-13.311-9.618l-7.546,1.873l9.081,4.923l-3.135,5.613
	l-11.339-9.198l-15.381,3.817l11.492,10.887l13.197-2.646l0.896,5.729l-10.167,0.636l5.634,5.337l17.305-2.086l0.258,6.755
	l-13.345-0.674l8.288,7.851l-4.64,5.163l-8.265-8.436l1.214,12.843l-7.164-0.098l1.925-16.853l-5.755-5.875l-0.109,10.681
	l-5.96-0.846l2.425-13.555l-10.891-11.117l-3.322,14.045l8.7,11.239l-4.513,3.639l-5.573-9.018l-1.9,8.035l10.492,13.988
	l-5.721,3.601l-6.109-11.933l-2.635,11.142l-6.791-1.437l3.152-11.36l-10.495,7.459l-3.497-6.254l15.529-6.746l2.229-8.032
	l-9.295,5.343l-2.248-5.584l13.19-5.693l3.813-13.743l-13.756,4.065l-5.321,13.003l-5.408-2.089l4.954-9.208l-7.874,2.327
	l-6.832,15.998l-5.979-3.154l7.242-11.197l-10.929,3.229l-2.151-6.6l11.505-2.908L24.8,106.947l3.667-6.155l13.705,10.147l8.11-2.05
	l-9.413-5.485l3.713-4.739l11.702,8.707l13.509-3.415l-10.524-9.854l-14.097,1.739l-1.248-5.986l10.594-0.202l-5.791-5.422
	l-16.493,2.135l-0.667-6.891l12.769,0.644l-8.063-7.55l5.182-5.667l8.046,8.38l-1.188-12.554l6.892,0.37l-1.679,16.376l5.186,5.4
	l-0.064-10.167l6.429-0.091l-1.609,15.211l9.944,10.356l3.308-14.116l-8.942-11.293l5.003-4.192l5.263,9.835l1.994-8.509
	l-10.08-13.194l5.635-4.023l5.817,11.363l2.517-10.741l7.498,1.655l-3.27,11.184L98.47,60.82l3.125,6.154L86.523,73.73l-2.46,8.414
	l9.198-6.384l3.294,5.522l-14.068,6.251l-4.117,14.08l14.832-4.571l4.565-13.342l6.133,2.237l-5.292,9.44l7.726-2.381l6.434-15.438
	l6.302,2.868l-6.983,10.798l10.61-3.27l2.317,7.321l-11.25,2.792l11.435,5.236L121.433,109.085z"/>
</svg>
