<?xml version="1.0" encoding="utf-8"?>
<!-- Generator: Adobe Illustrator 16.0.0, SVG Export Plug-In . SVG Version: 6.00 Build 0)  -->
<!DOCTYPE svg PUBLIC "-//W3C//DTD SVG 1.1//EN" "http://www.w3.org/Graphics/SVG/1.1/DTD/svg11.dtd" [
	<!ENTITY ns_flows "http://ns.adobe.com/Flows/1.0/">
	<!ENTITY ns_extend "http://ns.adobe.com/Extensibility/1.0/">
	<!ENTITY ns_ai "http://ns.adobe.com/AdobeIllustrator/10.0/">
	<!ENTITY ns_graphs "http://ns.adobe.com/Graphs/1.0/">
]>
<svg version="1.1" id="Слой_1" xmlns:x="&ns_extend;" xmlns:i="&ns_ai;" xmlns:graph="&ns_graphs;"
	 xmlns="http://www.w3.org/2000/svg" xmlns:xlink="http://www.w3.org/1999/xlink" xmlns:a="http://ns.adobe.com/AdobeSVGViewerExtensions/3.0/"
	 x="0px" y="0px" width="150px" height="190px" viewBox="0 0 150 190" enable-background="new 0 0 150 190" xml:space="preserve">
<path fill-rule="evenodd" clip-rule="evenodd" d="M107.423,125.384c0.533,10.937-6.578,22.196-21.951,22.196
	c-12.978,0-29.798-0.086-40.655-0.086c-19.52,0-21.699-26.156-5.998-31.827c-0.09-13.142,8.385-26.39,25.589-26.39
	c5.204,0,9.652,1.206,13.331,3.248c2.526-12.583,13.141-23.569,30.207-21.807c-18.922,15.142-4.649,48.06,20.176,42.937
	C123.893,120.216,116.878,124.973,107.423,125.384z M84.404,112.338c-1.469-8.492-8.032-16.085-19.351-16.085
	c-14.878,0-20.521,13.728-18.168,24.792c-15.252,0-14.457,20.098-1.107,20.098c9.385,0,28.588-0.323,39.884-0.323
	C105.394,140.82,105.553,110.395,84.404,112.338z M50.104,161.827c3.505,5.773,6.092,12.998,5.604,18.034
	c-0.929,9.562-16.033,7.911-15.215-1.512C40.937,173.242,45.176,166.609,50.104,161.827z M77.906,155.549
	c3.504,5.773,6.091,12.998,5.603,18.034c-0.928,9.562-16.032,7.911-15.215-1.512C68.738,166.963,72.977,160.332,77.906,155.549z"/>
</svg>
