<?xml version="1.0" encoding="utf-8"?>
<!-- Generator: Adobe Illustrator 16.0.0, SVG Export Plug-In . SVG Version: 6.00 Build 0)  -->
<!DOCTYPE svg PUBLIC "-//W3C//DTD SVG 1.1//EN" "http://www.w3.org/Graphics/SVG/1.1/DTD/svg11.dtd" [
	<!ENTITY ns_flows "http://ns.adobe.com/Flows/1.0/">
	<!ENTITY ns_extend "http://ns.adobe.com/Extensibility/1.0/">
	<!ENTITY ns_ai "http://ns.adobe.com/AdobeIllustrator/10.0/">
	<!ENTITY ns_graphs "http://ns.adobe.com/Graphs/1.0/">
]>
<svg version="1.1" id="Слой_1" xmlns:x="&ns_extend;" xmlns:i="&ns_ai;" xmlns:graph="&ns_graphs;"
	 xmlns="http://www.w3.org/2000/svg" xmlns:xlink="http://www.w3.org/1999/xlink" xmlns:a="http://ns.adobe.com/AdobeSVGViewerExtensions/3.0/"
	 x="0px" y="0px" width="150px" height="190px" viewBox="0 0 150 190" enable-background="new 0 0 150 190" xml:space="preserve">
<path fill-rule="evenodd" clip-rule="evenodd" d="M107.424,125.384c0.532,10.937-6.579,22.196-21.952,22.196
	c-12.978,0-29.798-0.086-40.655-0.086c-19.52,0-21.699-26.156-5.998-31.827c-0.089-13.142,8.385-26.39,25.589-26.39
	c5.204,0,9.652,1.206,13.331,3.248c2.526-12.583,13.141-23.569,30.207-21.807c-18.922,15.142-4.649,48.06,20.176,42.937
	C123.893,120.216,116.879,124.973,107.424,125.384z M84.404,112.338c-1.468-8.492-8.032-16.085-19.351-16.085
	c-14.878,0-20.521,13.728-18.168,24.792c-15.252,0-14.457,20.098-1.107,20.098c9.385,0,28.588-0.323,39.884-0.323
	C105.394,140.82,105.553,110.395,84.404,112.338z M33.807,166.294l9.525,2.366l-3.492-9.033l6.215-1.726l2.479,9.593l6.229-7.553
	l4.399,3.928l-6.735,6.711l9.565,2.389l-1.66,5.895l-9.276-2.746l3.643,9.178l-5.818,1.804l-2.874-10.105l-5.911,8.55l-4.719-4.17
	l7.35-7.342l-10.337-1.921L33.807,166.294z M66.751,157.277l3.802-4.393l4.605,5.523l0.758-6.973l5.156,1.04l-2.373,6.706
	l6.228-2.799l1.657,5.125l-6.938,1.232l5.674,4.199l-3.553,4.041l-4.549-5.486l-0.735,6.764l-5.442-1.23l2.49-6.401l-6.233,2.918
	l-1.505-5.351l6.578-1.157L66.751,157.277z M85.226,174.595l6.276,2.287l-2.988-6.064l5.488-1.904L95.229,176l4.143-5.659
	l3.946,3.479l-5.408,4.621l6.792,0.689l-1.126,5.267l-6.624-2.402l2.813,6.473l-5.098,1.224l-1.173-6.558l-4.042,5.522l-4.099-3.787
	l5.357-4.299l-6.857-0.589L85.226,174.595z"/>
</svg>
