<?xml version="1.0" encoding="utf-8"?>
<!-- Generator: Adobe Illustrator 16.0.0, SVG Export Plug-In . SVG Version: 6.00 Build 0)  -->
<!DOCTYPE svg PUBLIC "-//W3C//DTD SVG 1.1//EN" "http://www.w3.org/Graphics/SVG/1.1/DTD/svg11.dtd" [
	<!ENTITY ns_flows "http://ns.adobe.com/Flows/1.0/">
	<!ENTITY ns_extend "http://ns.adobe.com/Extensibility/1.0/">
	<!ENTITY ns_ai "http://ns.adobe.com/AdobeIllustrator/10.0/">
	<!ENTITY ns_graphs "http://ns.adobe.com/Graphs/1.0/">
]>
<svg version="1.1" id="Слой_1" xmlns:x="&ns_extend;" xmlns:i="&ns_ai;" xmlns:graph="&ns_graphs;"
	 xmlns="http://www.w3.org/2000/svg" xmlns:xlink="http://www.w3.org/1999/xlink" xmlns:a="http://ns.adobe.com/AdobeSVGViewerExtensions/3.0/"
	 x="0px" y="0px" width="150px" height="190px" viewBox="0 0 150 190" enable-background="new 0 0 150 190" xml:space="preserve">
<path fill-rule="evenodd" clip-rule="evenodd" d="M108.092,98.53l16.897-2.034l0.685,7.385l-16.836,1.125L108.092,98.53z
	 M98.441,80.762l9.336-8.856l5.133,5.754l-10.543,7.741L98.441,80.762z M80.135,72.176l3.551-16.756l6.992,1.783l-4.723,16.64
	L80.135,72.176z M75.604,135.899c-42.967,0.185-40.059-57.692-2.879-57.852C110.625,77.884,111.83,135.743,75.604,135.899z
	 M72.822,85.5C44.024,85.624,42.287,129.139,75,128.998C102.581,128.88,102.18,85.374,72.822,85.5z M53.146,61.98l7.591-2.252
	l4.074,11.671l-5.752,1.938L53.146,61.98z M28.88,78.795L32.624,72l14.047,10.124l-2.815,5.495L28.88,78.795z M37.58,109.768
	l-13.051,1.057l-0.204-8.107l12.7,1.002L37.58,109.768z M47.664,131.311l-12.819,12.152l-4.898-6.658l13.851-10.167L47.664,131.311z
	 M69.299,143.914l-0.697,13.107l-8.719-0.92l3.676-13.155L69.299,143.914z M101.357,152.211l-7.447,3.57l-7.646-15.236l6.494-2.86
	L101.357,152.211z M118.523,127.558l-3.448,6.691l-12.349-7.93l3.004-5.312L118.523,127.558z"/>
</svg>
